<svg width="26" height="32" viewBox="0 0 26 32" fill="none" xmlns="http://www.w3.org/2000/svg">
<path d="M17.0781 24.4375C16.8438 24.6719 16.5391 24.8828 16.1641 25.0703C15.8359 25.2578 15.5312 25.3984 15.25 25.4922C14.4062 25.7734 13.5625 25.7969 12.7188 25.5625C11.9219 25.2812 11.2422 24.9062 10.6797 24.4375C10.5859 24.3438 10.5391 24.25 10.5391 24.1562C10.5859 24.0625 10.6562 23.9922 10.75 23.9453C11.6406 23.6641 12.3438 23.2188 12.8594 22.6094C13.375 22 13.7266 21.3438 13.9141 20.6406C14.0547 19.9844 14.0312 19.3516 13.8438 18.7422C13.6562 18.1328 13.5156 17.5 13.4219 16.8438C13.3281 16.3281 13.2812 15.8359 13.2812 15.3672C13.3281 14.8516 13.4453 14.3594 13.6328 13.8906C13.6328 13.7969 13.6797 13.75 13.7734 13.75C13.8672 13.75 13.9375 13.7734 13.9844 13.8203C14.2656 14.4297 14.6172 14.9688 15.0391 15.4375C15.5078 15.9062 15.9766 16.3516 16.4453 16.7734C16.9609 17.1953 17.4062 17.6641 17.7812 18.1797C18.2031 18.6484 18.4609 19.2109 18.5547 19.8672C18.6016 20.1484 18.625 20.4062 18.625 20.6406C18.6719 21.3438 18.5547 22.0469 18.2734 22.75C17.9922 23.4531 17.5938 24.0156 17.0781 24.4375ZM21.2969 12.4141C20.7344 11.8984 20.1484 11.4297 19.5391 11.0078C18.9297 10.5859 18.3438 10.0938 17.7812 9.53125C16.6562 8.40625 15.9062 7.09375 15.5312 5.59375C15.2031 4.09375 15.2734 2.57031 15.7422 1.02344C15.8359 0.789063 15.7891 0.601562 15.6016 0.460938C15.4609 0.273437 15.2734 0.226563 15.0391 0.320312C14.4766 0.554687 13.9375 0.835937 13.4219 1.16406C12.9531 1.49219 12.4844 1.82031 12.0156 2.14844C10.5625 3.36719 9.41406 4.82031 8.57031 6.50781C7.72656 8.14844 7.23438 9.92969 7.09375 11.8516C7 13.7266 7.30469 15.5781 8.00781 17.4062C8.00781 17.5 8.00781 17.5938 8.00781 17.6875C8.05469 17.7812 8.07812 17.875 8.07812 17.9688C8.07812 18.3906 7.89062 18.6953 7.51562 18.8828C7.14062 19.0703 6.76562 19 6.39062 18.6719C6.29688 18.5312 6.22656 18.4141 6.17969 18.3203C5.42969 17.3828 4.91406 16.3281 4.63281 15.1562C4.39844 13.9375 4.375 12.7422 4.5625 11.5703C4.60938 11.2891 4.49219 11.0781 4.21094 10.9375C3.97656 10.7969 3.76562 10.8438 3.57812 11.0781C2.64062 12.2969 1.96094 13.6563 1.53906 15.1562C1.11719 16.6094 0.953125 18.0859 1.04688 19.5859C1.04688 20.0078 1.07031 20.4531 1.11719 20.9219C1.21094 21.3438 1.32812 21.7656 1.46875 22.1875C1.79688 23.3125 2.24219 24.3438 2.80469 25.2812C3.69531 26.7812 4.89062 28.0469 6.39062 29.0781C7.89062 30.0625 9.50781 30.6719 11.2422 30.9062C13.0703 31.1406 14.8984 31.0469 16.7266 30.625C18.6016 30.2031 20.2422 29.3594 21.6484 28.0938C22.6797 27.1094 23.4766 25.9844 24.0391 24.7188C24.6484 23.4062 24.9766 22.0469 25.0234 20.6406C25.0703 19.2344 24.8125 17.875 24.25 16.5625C24.2031 16.4688 24.1562 16.3984 24.1094 16.3516C24.1094 16.2578 24.0859 16.1641 24.0391 16.0703C23.6172 15.2734 23.1484 14.5469 22.6328 13.8906C22.4453 13.6094 22.2344 13.3516 22 13.1172C21.8125 12.8828 21.5781 12.6484 21.2969 12.4141Z" fill="black"/>
</svg>
