<svg width="26" height="34" viewBox="0 0 26 34" fill="none" xmlns="http://www.w3.org/2000/svg">
<path d="M23.125 10.6016C24.3906 12.5234 25.0234 14.6563 25.0234 17C25.0234 20.2812 23.8281 23.1172 21.4375 25.5078C19.0938 27.8516 16.2812 29.0234 13 29.0234V33.5234L7.02344 27.4766L13 21.5V26C15.4844 26 17.5938 25.1328 19.3281 23.3984C21.1094 21.6172 22 19.4844 22 17C22 15.5938 21.6484 14.1875 20.9453 12.7812L23.125 10.6016ZM13 8C10.5156 8 8.38281 8.89063 6.60156 10.6719C4.86719 12.4063 4 14.5156 4 17C4 18.5 4.35156 19.9062 5.05469 21.2188L2.875 23.3984C1.60938 21.4766 0.976562 19.3438 0.976562 17C0.976562 13.7187 2.14844 10.9062 4.49219 8.5625C6.88281 6.17188 9.71875 4.97656 13 4.97656V0.476562L18.9766 6.52344L13 12.5V8Z" fill="black"/>
</svg>
