<svg width="30" height="21" viewBox="0 0 30 21" fill="none" xmlns="http://www.w3.org/2000/svg">
<path d="M4.38281 2.72656C7.33594 1.22656 10.875 0.476562 15 0.476562C19.125 0.476562 22.6406 1.22656 25.5469 2.72656C28.5 4.17969 29.9766 5.9375 29.9766 8C29.9766 9.54687 29.1328 10.9531 27.4453 12.2187C25.8047 13.4375 23.6484 14.3281 20.9766 14.8906V11.7969C22.8047 11.3281 24.2578 10.7422 25.3359 10.0391C26.4609 9.28906 27.0234 8.60937 27.0234 8C27.0234 7.4375 26.5547 6.82812 25.6172 6.17187C24.6797 5.46875 23.25 4.85937 21.3281 4.34375C19.4063 3.78125 17.2969 3.5 15 3.5C12.7031 3.5 10.5938 3.78125 8.67188 4.34375C6.75 4.85937 5.32031 5.46875 4.38281 6.17188C3.44531 6.82812 2.97656 7.4375 2.97656 8C2.97656 8.70312 3.67969 9.47656 5.08594 10.3203C6.49219 11.1172 8.29688 11.7031 10.5 12.0781V8L16.4766 13.9766L10.5 20.0234L10.5 15.1719C7.40625 14.6562 4.875 13.7656 2.90625 12.5C0.984375 11.1875 0.0234375 9.6875 0.0234375 8C0.0234375 5.9375 1.47656 4.17969 4.38281 2.72656Z" fill="black"/>
</svg>
