<svg width="29" height="34" viewBox="0 0 29 34" fill="none" xmlns="http://www.w3.org/2000/svg">
<rect y="6" width="3" height="21" fill="black"/>
<rect x="26" y="6" width="3" height="21" fill="black"/>
<path d="M15.2071 21.2929C14.8166 20.9024 14.1834 20.9024 13.7929 21.2929L7.42893 27.6569C7.03841 28.0474 7.03841 28.6805 7.42893 29.0711C7.81946 29.4616 8.45262 29.4616 8.84315 29.0711L14.5 23.4142L20.1569 29.0711C20.5474 29.4616 21.1805 29.4616 21.5711 29.0711C21.9616 28.6805 21.9616 28.0474 21.5711 27.6569L15.2071 21.2929ZM15.5 34L15.5 22L13.5 22L13.5 34L15.5 34Z" fill="black"/>
<path d="M22 7.5C22 11.6421 18.6421 15 14.5 15C10.3579 15 7 11.6421 7 7.5C7 3.35786 10.3579 0 14.5 0C18.6421 0 22 3.35786 22 7.5ZM9.25 7.5C9.25 10.3995 11.6005 12.75 14.5 12.75C17.3995 12.75 19.75 10.3995 19.75 7.5C19.75 4.6005 17.3995 2.25 14.5 2.25C11.6005 2.25 9.25 4.6005 9.25 7.5Z" fill="black"/>
</svg>
