<svg width="21" height="30" viewBox="0 0 21 30" fill="none" xmlns="http://www.w3.org/2000/svg">
<path d="M18.2734 4.38281C19.7734 7.33594 20.5234 10.875 20.5234 15C20.5234 19.125 19.7734 22.6406 18.2734 25.5469C16.8203 28.5 15.0625 29.9766 13 29.9766C11.4531 29.9766 10.0469 29.1328 8.78125 27.4453C7.5625 25.8047 6.67187 23.6484 6.10937 20.9766L9.20312 20.9766C9.67187 22.8047 10.2578 24.2578 10.9609 25.3359C11.7109 26.4609 12.3906 27.0234 13 27.0234C13.5625 27.0234 14.1719 26.5547 14.8281 25.6172C15.5312 24.6797 16.1406 23.25 16.6562 21.3281C17.2187 19.4062 17.5 17.2969 17.5 15C17.5 12.7031 17.2187 10.5937 16.6562 8.67187C16.1406 6.75 15.5312 5.32031 14.8281 4.38281C14.1719 3.44531 13.5625 2.97656 13 2.97656C12.2969 2.97656 11.5234 3.67969 10.6797 5.08594C9.88281 6.49219 9.29687 8.29687 8.92187 10.5L13 10.5L7.02344 16.4766L0.976562 10.5L5.82812 10.5C6.34375 7.40625 7.23437 4.875 8.5 2.90625C9.8125 0.984374 11.3125 0.0234366 13 0.0234367C15.0625 0.0234368 16.8203 1.47656 18.2734 4.38281Z" fill="black"/>
</svg>
