<svg width="28" height="35" viewBox="0 0 28 35" fill="none" xmlns="http://www.w3.org/2000/svg">
<rect y="6" width="2" height="21" fill="white"/>
<rect x="26" y="6" width="2" height="21" fill="white"/>
<path d="M13.7929 34.7071C14.1834 35.0976 14.8166 35.0976 15.2071 34.7071L21.5711 28.3431C21.9616 27.9526 21.9616 27.3195 21.5711 26.9289C21.1805 26.5384 20.5474 26.5384 20.1569 26.9289L14.5 32.5858L8.84315 26.9289C8.45262 26.5384 7.81946 26.5384 7.42893 26.9289C7.03841 27.3195 7.03841 27.9526 7.42893 28.3431L13.7929 34.7071ZM13.5 22L13.5 34L15.5 34L15.5 22L13.5 22Z" fill="white"/>
<path d="M22 7.5C22 11.6421 18.6421 15 14.5 15C10.3579 15 7 11.6421 7 7.5C7 3.35786 10.3579 0 14.5 0C18.6421 0 22 3.35786 22 7.5ZM9.25 7.5C9.25 10.3995 11.6005 12.75 14.5 12.75C17.3995 12.75 19.75 10.3995 19.75 7.5C19.75 4.6005 17.3995 2.25 14.5 2.25C11.6005 2.25 9.25 4.6005 9.25 7.5Z" fill="white"/>
</svg>
