<svg width="26" height="41" viewBox="0 0 26 41" fill="none" xmlns="http://www.w3.org/2000/svg">
<rect y="13" width="2" height="21" fill="black"/>
<rect width="2" height="13" fill="black"/>
<rect x="24" width="2" height="22" transform="rotate(90 24 0)" fill="black"/>
<rect x="24" y="13" width="2" height="21" fill="black"/>
<rect x="24" width="2" height="13" fill="black"/>
<path d="M12.2929 40.7071C12.6834 41.0976 13.3166 41.0976 13.7071 40.7071L20.0711 34.3431C20.4616 33.9526 20.4616 33.3195 20.0711 32.9289C19.6805 32.5384 19.0474 32.5384 18.6569 32.9289L13 38.5858L7.34315 32.9289C6.95262 32.5384 6.31946 32.5384 5.92893 32.9289C5.53841 33.3195 5.53841 33.9526 5.92893 34.3431L12.2929 40.7071ZM12 28L12 40L14 40L14 28L12 28Z" fill="black"/>
<path d="M21 15C21 19.4183 17.4183 23 13 23C8.58172 23 5 19.4183 5 15C5 10.5817 8.58172 7 13 7C17.4183 7 21 10.5817 21 15ZM7.4 15C7.4 18.0928 9.90721 20.6 13 20.6C16.0928 20.6 18.6 18.0928 18.6 15C18.6 11.9072 16.0928 9.4 13 9.4C9.90721 9.4 7.4 11.9072 7.4 15Z" fill="black"/>
</svg>
