<svg width="26" height="40" viewBox="0 0 26 40" fill="none" xmlns="http://www.w3.org/2000/svg">
<rect y="13" width="2" height="21" fill="white"/>
<rect width="2" height="13" fill="white"/>
<rect x="24" width="2" height="22" transform="rotate(90 24 0)" fill="white"/>
<rect x="24" y="13" width="2" height="21" fill="white"/>
<rect x="24" width="2" height="13" fill="white"/>
<path d="M13.7071 27.2929C13.3166 26.9024 12.6834 26.9024 12.2929 27.2929L5.92893 33.6569C5.53841 34.0474 5.53841 34.6805 5.92893 35.0711C6.31946 35.4616 6.95262 35.4616 7.34315 35.0711L13 29.4142L18.6569 35.0711C19.0474 35.4616 19.6805 35.4616 20.0711 35.0711C20.4616 34.6805 20.4616 34.0474 20.0711 33.6569L13.7071 27.2929ZM14 40L14 28L12 28L12 40L14 40Z" fill="white"/>
<path d="M21 15C21 19.4183 17.4183 23 13 23C8.58172 23 5 19.4183 5 15C5 10.5817 8.58172 7 13 7C17.4183 7 21 10.5817 21 15ZM7.4 15C7.4 18.0928 9.90721 20.6 13 20.6C16.0928 20.6 18.6 18.0928 18.6 15C18.6 11.9072 16.0928 9.4 13 9.4C9.90721 9.4 7.4 11.9072 7.4 15Z" fill="white"/>
</svg>
