<svg width="28" height="28" viewBox="0 0 28 28" fill="none" xmlns="http://www.w3.org/2000/svg">
<path d="M2.04798 5.12744C1.65393 5.12744 1.3015 5.03291 0.990692 4.84384C0.685437 4.65477 0.444008 4.40357 0.266405 4.09025C0.0888015 3.77153 0 3.4204 0 3.03686C0 2.65872 0.0943516 2.31299 0.283055 1.99967C0.477308 1.68095 0.738163 1.42976 1.06562 1.24609C1.39307 1.05702 1.76216 0.962483 2.17286 0.962483C2.58357 0.962483 2.95265 1.05432 3.28011 1.23799C3.60756 1.41625 3.86564 1.66204 4.05434 1.97536C4.2486 2.28868 4.34572 2.64251 4.34572 3.03686V5.03021H3.56316V3.54735L3.84622 3.33667C3.84622 3.6716 3.76851 3.97411 3.61311 4.24421C3.46326 4.51431 3.25236 4.73039 2.9804 4.89245C2.714 5.04911 2.40319 5.12744 2.04798 5.12744ZM2.17286 4.36576C2.42817 4.36576 2.6585 4.30633 2.86385 4.18749C3.0692 4.06865 3.23015 3.90929 3.34671 3.70941C3.46326 3.50414 3.52153 3.28265 3.52153 3.04496C3.52153 2.80187 3.46326 2.58039 3.34671 2.38051C3.23015 2.18064 3.0692 2.02128 2.86385 1.90244C2.6585 1.77819 2.42817 1.71607 2.17286 1.71607C1.91756 1.71607 1.68723 1.77819 1.48188 1.90244C1.28207 2.02128 1.12112 2.18064 0.999017 2.38051C0.882465 2.58039 0.824189 2.80187 0.824189 3.04496C0.824189 3.28265 0.882465 3.50414 0.999017 3.70941C1.12112 3.90929 1.28207 4.06865 1.48188 4.18749C1.68723 4.30633 1.91756 4.36576 2.17286 4.36576Z" fill="#070707"/>
<path d="M14.1958 5.12741H13.3716V2.76133C13.3716 2.4372 13.4326 2.1482 13.5547 1.8943C13.6824 1.64041 13.8655 1.44053 14.1042 1.29468C14.3484 1.14882 14.6481 1.0759 15.0033 1.0759C15.1365 1.0759 15.2641 1.0894 15.3862 1.11641C15.5139 1.13802 15.6305 1.17313 15.7359 1.22175V2.01585C15.636 1.95642 15.5278 1.91321 15.4112 1.8862C15.3002 1.85919 15.1892 1.84568 15.0782 1.84568C14.8063 1.84568 14.5898 1.93212 14.4289 2.10498C14.2735 2.27244 14.1958 2.50203 14.1958 2.79374V5.12741Z" fill="#070707"/>
<path d="M26.4882 5.10491C26.1551 5.10491 25.8721 5.04009 25.639 4.91044C25.4059 4.78079 25.2283 4.60252 25.1062 4.37564C24.9896 4.14335 24.9314 3.87595 24.9314 3.57344V0H25.7555V3.54913C25.7555 3.80843 25.8277 4.011 25.972 4.15686C26.1218 4.30271 26.3189 4.37564 26.5631 4.37564C26.6963 4.37564 26.8295 4.35403 26.9627 4.31081C27.1014 4.2676 27.2208 4.21088 27.3207 4.14065V4.87803C27.2152 4.94285 27.0876 4.99687 26.9377 5.04009C26.7879 5.0833 26.638 5.10491 26.4882 5.10491ZM27.3207 1.72595H24.1238V1.02909H27.3207V1.72595Z" fill="#070707"/>
<path d="M2.27342 16.5853H1.44923V14.2192C1.44923 13.8951 1.51028 13.6061 1.63238 13.3522C1.76003 13.0983 1.94319 12.8985 2.18184 12.7526C2.42604 12.6067 2.72575 12.5338 3.08095 12.5338C3.21416 12.5338 3.34181 12.5473 3.46391 12.5743C3.59156 12.5959 3.70812 12.631 3.81357 12.6797V13.4738C3.71367 13.4143 3.60544 13.3711 3.48889 13.3441C3.37788 13.3171 3.26688 13.3036 3.15588 13.3036C2.88393 13.3036 2.66747 13.39 2.50652 13.5629C2.35112 13.7304 2.27342 13.9599 2.27342 14.2517V16.5853Z" fill="#070707"/>
<path d="M14.164 16.6324C13.7533 16.6324 13.3842 16.5379 13.0568 16.3488C12.7293 16.1597 12.4684 15.9085 12.2742 15.5952C12.0799 15.2765 11.9828 14.9254 11.9828 14.5418C11.9828 14.1583 12.0799 13.8098 12.2742 13.4965C12.4684 13.1832 12.7293 12.9347 13.0568 12.7511C13.3842 12.562 13.7533 12.4674 14.164 12.4674C14.5747 12.4674 14.9438 12.562 15.2712 12.7511C15.5987 12.9347 15.8568 13.1859 16.0455 13.5046C16.2342 13.8179 16.3285 14.1637 16.3285 14.5418C16.3285 14.9254 16.2342 15.2765 16.0455 15.5952C15.8568 15.9085 15.5959 16.1597 15.2629 16.3488C14.9355 16.5379 14.5692 16.6324 14.164 16.6324ZM14.164 15.8707C14.4193 15.8707 14.6469 15.8113 14.8467 15.6925C15.052 15.5736 15.213 15.4142 15.3295 15.2144C15.4461 15.0091 15.5044 14.7876 15.5044 14.5499C15.5044 14.3068 15.4461 14.0853 15.3295 13.8855C15.213 13.6856 15.052 13.5262 14.8467 13.4074C14.6469 13.2831 14.4193 13.221 14.164 13.221C13.9087 13.221 13.6784 13.2831 13.473 13.4074C13.2732 13.5262 13.1123 13.6856 12.9902 13.8855C12.8681 14.0853 12.807 14.3068 12.807 14.5499C12.807 14.7876 12.8681 15.0091 12.9902 15.2144C13.1123 15.4142 13.2732 15.5736 13.473 15.6925C13.6784 15.8113 13.9087 15.8707 14.164 15.8707Z" fill="#070707"/>
<path d="M25.8256 16.5496C25.4149 16.5496 25.0458 16.4551 24.7184 16.266C24.3909 16.0769 24.1301 15.8257 23.9358 15.5124C23.7471 15.1991 23.6528 14.8534 23.6528 14.4752C23.6528 14.0701 23.7443 13.7108 23.9275 13.3975C24.1107 13.0842 24.3632 12.8384 24.6851 12.6601C25.007 12.4765 25.3733 12.3846 25.784 12.3846C26.1115 12.3846 26.4112 12.4603 26.6831 12.6115C26.9606 12.7574 27.1826 12.9546 27.3491 13.203C27.5156 13.4515 27.5989 13.7216 27.5989 14.0133L27.166 13.8027L27.1743 10.6587H27.9985V14.4752C27.9985 14.8642 27.9014 15.218 27.7071 15.5367C27.5184 15.85 27.2603 16.0985 26.9329 16.2822C26.6054 16.4605 26.2363 16.5496 25.8256 16.5496ZM25.8256 15.796C26.0809 15.796 26.3113 15.7366 26.5166 15.6178C26.722 15.4935 26.8829 15.3314 26.9995 15.1316C27.116 14.9317 27.1743 14.7102 27.1743 14.4671C27.1743 14.2294 27.116 14.0106 26.9995 13.8108C26.8829 13.6055 26.722 13.4434 26.5166 13.3246C26.3113 13.2057 26.0809 13.1463 25.8256 13.1463C25.5703 13.1463 25.34 13.2057 25.1346 13.3246C24.9348 13.4434 24.7739 13.6055 24.6518 13.8108C24.5352 14.0106 24.477 14.2294 24.477 14.4671C24.477 14.7102 24.5352 14.9317 24.6518 15.1316C24.7739 15.3314 24.9348 15.4935 25.1346 15.6178C25.34 15.7366 25.5703 15.796 25.8256 15.796Z" fill="#070707"/>
<path d="M1.95059 23.9215H2.77477V27.892H1.95059V23.9215ZM2.35852 23.1355C2.26417 23.1355 2.17536 23.1139 2.09211 23.0706C2.00886 23.022 1.94226 22.9572 1.89231 22.8762C1.84236 22.7951 1.81738 22.706 1.81738 22.6088C1.81738 22.5115 1.84236 22.4224 1.89231 22.3414C1.94226 22.2603 2.00886 22.1955 2.09211 22.1469C2.17536 22.0983 2.26417 22.074 2.35852 22.074C2.45842 22.074 2.54722 22.0983 2.62492 22.1469C2.70817 22.1955 2.772 22.2603 2.8164 22.3414C2.86635 22.4224 2.89133 22.5115 2.89133 22.6088C2.89133 22.706 2.86635 22.7951 2.8164 22.8762C2.772 22.9572 2.70817 23.022 2.62492 23.0706C2.54722 23.1139 2.45842 23.1355 2.35852 23.1355Z" fill="#070707"/>
<path d="M14.925 27.9973C14.592 27.9973 14.309 27.9325 14.0759 27.8028C13.8428 27.6732 13.6652 27.4949 13.5431 27.268C13.4265 27.0357 13.3682 26.7683 13.3682 26.4658V22.8924H14.1924V26.4415C14.1924 26.7008 14.2646 26.9034 14.4089 27.0492C14.5587 27.1951 14.7558 27.268 15 27.268C15.1332 27.268 15.2664 27.2464 15.3996 27.2032C15.5383 27.16 15.6577 27.1033 15.7576 27.033V27.7704C15.6521 27.8352 15.5245 27.8892 15.3746 27.9325C15.2248 27.9757 15.0749 27.9973 14.925 27.9973ZM15.7576 24.6183H12.5607V23.9215H15.7576V24.6183Z" fill="#070707"/>
<path d="M25.9996 27.9811C25.5889 27.9811 25.2198 27.8919 24.8924 27.7137C24.5649 27.53 24.3069 27.2815 24.1182 26.9682C23.9294 26.6495 23.8351 26.2875 23.8351 25.8824C23.8351 25.5043 23.9211 25.1585 24.0932 24.8452C24.2652 24.5265 24.5067 24.2753 24.8175 24.0916C25.1283 23.9026 25.489 23.808 25.8997 23.808C26.3104 23.808 26.6629 23.8972 26.957 24.0754C27.2567 24.2483 27.4871 24.486 27.648 24.7885C27.8145 25.0856 27.8978 25.4178 27.8978 25.7852V26.1093H24.4761L24.626 25.7852C24.6093 26.0661 24.6565 26.3173 24.7675 26.5387C24.8785 26.7602 25.0395 26.9385 25.2504 27.0735C25.4613 27.2032 25.7083 27.268 25.9913 27.268C26.2466 27.268 26.4769 27.214 26.6823 27.106C26.8932 26.9979 27.0597 26.8359 27.1818 26.6198L27.8145 26.9358C27.6369 27.2761 27.3899 27.5354 27.0736 27.7137C26.7572 27.8919 26.3992 27.9811 25.9996 27.9811ZM24.6676 25.5907H27.0736C27.0625 25.38 27.0042 25.1936 26.8987 25.0316C26.7988 24.8695 26.6601 24.7453 26.4825 24.6588C26.3104 24.5724 26.1134 24.5292 25.8914 24.5292C25.6639 24.5292 25.4613 24.5751 25.2837 24.6669C25.1116 24.7588 24.9729 24.8857 24.8674 25.0478C24.7675 25.2098 24.7009 25.3908 24.6676 25.5907Z" fill="#070707"/>
</svg>
