<svg width="1010" height="962" viewBox="0 0 1010 962" fill="none" xmlns="http://www.w3.org/2000/svg">
<g clip-path="url(#clip0_1936_1678)">
<rect width="1920" height="4924" transform="translate(0 -2)" fill="white"/>
<g filter="url(#filter0_ddddddi_1936_1678)">
<path d="M138.918 0.361505L138.918 153.479C138.918 176.967 126.545 198.717 106.356 210.719V210.719C67.8097 233.634 62.4726 287.326 95.7531 317.381L111.724 331.804C129.037 347.439 138.918 369.675 138.918 393.003L138.918 631.862C138.918 687.09 183.69 731.862 238.918 731.862L899.931 731.862C955.159 731.862 999.931 776.633 999.931 831.862L999.931 952.861L999.931 1014.82C999.931 1081.32 1077.38 1117.75 1128.61 1075.35V1075.35C1156.87 1051.96 1197.55 1051.23 1226.62 1073.6L1302.53 1131.98C1325.92 1149.98 1356.06 1156.72 1384.89 1150.41L1514.61 1122C1543.37 1115.7 1573.34 1124.84 1593.71 1146.1V1146.1C1633.19 1187.35 1621.25 1255.07 1570.03 1280.32L1441.56 1343.63C1411.5 1358.45 1376 1357.22 1347.04 1340.35L1243.73 1280.2C1195.66 1252.21 1133.98 1268.83 1106.48 1317.2L1064.84 1390.44C1051.76 1413.44 1048.33 1440.69 1055.31 1466.22L1075.61 1540.55C1085.6 1577.1 1056.84 1612.7 1019 1610.6V1610.6C987.182 1608.84 960.418 1634.17 960.418 1666.03L960.418 1738.86L960.418 1995.36" stroke="#3E5F8A" stroke-width="5"/>
</g>
</g>
<defs>
<filter id="filter0_ddddddi_1936_1678" x="18.2886" y="-8.63867" width="1606.39" height="2019" filterUnits="userSpaceOnUse" color-interpolation-filters="sRGB">
<feFlood flood-opacity="0" result="BackgroundImageFix"/>
<feColorMatrix in="SourceAlpha" type="matrix" values="0 0 0 0 0 0 0 0 0 0 0 0 0 0 0 0 0 0 127 0" result="hardAlpha"/>
<feOffset dx="-2"/>
<feGaussianBlur stdDeviation="2"/>
<feColorMatrix type="matrix" values="0 0 0 0 0 0 0 0 0 0 0 0 0 0 0 0 0 0 0.34 0"/>
<feBlend mode="normal" in2="BackgroundImageFix" result="effect1_dropShadow_1936_1678"/>
<feColorMatrix in="SourceAlpha" type="matrix" values="0 0 0 0 0 0 0 0 0 0 0 0 0 0 0 0 0 0 127 0" result="hardAlpha"/>
<feOffset dx="-7"/>
<feGaussianBlur stdDeviation="3.5"/>
<feColorMatrix type="matrix" values="0 0 0 0 0 0 0 0 0 0 0 0 0 0 0 0 0 0 0.3 0"/>
<feBlend mode="normal" in2="effect1_dropShadow_1936_1678" result="effect2_dropShadow_1936_1678"/>
<feColorMatrix in="SourceAlpha" type="matrix" values="0 0 0 0 0 0 0 0 0 0 0 0 0 0 0 0 0 0 127 0" result="hardAlpha"/>
<feOffset dx="-15" dy="1"/>
<feGaussianBlur stdDeviation="4.5"/>
<feColorMatrix type="matrix" values="0 0 0 0 0 0 0 0 0 0 0 0 0 0 0 0 0 0 0.18 0"/>
<feBlend mode="normal" in2="effect2_dropShadow_1936_1678" result="effect3_dropShadow_1936_1678"/>
<feColorMatrix in="SourceAlpha" type="matrix" values="0 0 0 0 0 0 0 0 0 0 0 0 0 0 0 0 0 0 127 0" result="hardAlpha"/>
<feOffset dx="-26" dy="2"/>
<feGaussianBlur stdDeviation="5.5"/>
<feColorMatrix type="matrix" values="0 0 0 0 0 0 0 0 0 0 0 0 0 0 0 0 0 0 0.05 0"/>
<feBlend mode="normal" in2="effect3_dropShadow_1936_1678" result="effect4_dropShadow_1936_1678"/>
<feColorMatrix in="SourceAlpha" type="matrix" values="0 0 0 0 0 0 0 0 0 0 0 0 0 0 0 0 0 0 127 0" result="hardAlpha"/>
<feOffset dx="-41" dy="3"/>
<feGaussianBlur stdDeviation="6"/>
<feColorMatrix type="matrix" values="0 0 0 0 0 0 0 0 0 0 0 0 0 0 0 0 0 0 0.01 0"/>
<feBlend mode="normal" in2="effect4_dropShadow_1936_1678" result="effect5_dropShadow_1936_1678"/>
<feColorMatrix in="SourceAlpha" type="matrix" values="0 0 0 0 0 0 0 0 0 0 0 0 0 0 0 0 0 0 127 0" result="hardAlpha"/>
<feOffset dy="4"/>
<feGaussianBlur stdDeviation="2"/>
<feComposite in2="hardAlpha" operator="out"/>
<feColorMatrix type="matrix" values="0 0 0 0 0 0 0 0 0 0 0 0 0 0 0 0 0 0 0.25 0"/>
<feBlend mode="normal" in2="effect5_dropShadow_1936_1678" result="effect6_dropShadow_1936_1678"/>
<feBlend mode="normal" in="SourceGraphic" in2="effect6_dropShadow_1936_1678" result="shape"/>
<feColorMatrix in="SourceAlpha" type="matrix" values="0 0 0 0 0 0 0 0 0 0 0 0 0 0 0 0 0 0 127 0" result="hardAlpha"/>
<feOffset dx="5" dy="2"/>
<feGaussianBlur stdDeviation="5"/>
<feComposite in2="hardAlpha" operator="arithmetic" k2="-1" k3="1"/>
<feColorMatrix type="matrix" values="0 0 0 0 0.0942535 0 0 0 0 0.210554 0 0 0 0 0.254167 0 0 0 1 0"/>
<feBlend mode="normal" in2="shape" result="effect7_innerShadow_1936_1678"/>
</filter>
<clipPath id="clip0_1936_1678">
<rect width="1920" height="4924" fill="white" transform="translate(0 -2)"/>
</clipPath>
</defs>
</svg>
