<svg width="1606" height="1992" viewBox="0 0 1606 1992" fill="none" xmlns="http://www.w3.org/2000/svg">
<g filter="url(#filter0_ddddddi_749_910)">
<path d="M120.68 -18.5L120.68 134.618C120.68 158.105 108.307 179.856 88.1174 191.858V191.858C49.5715 214.773 44.2344 268.464 77.5149 298.519L93.4862 312.942C110.799 328.577 120.68 350.813 120.68 374.141L120.68 613C120.68 668.228 165.452 713 220.68 713L881.693 713C936.921 713 981.693 757.772 981.693 813L981.693 934L981.693 995.955C981.693 1062.45 1059.15 1098.89 1110.37 1056.49V1056.49C1138.63 1033.1 1179.31 1032.37 1208.39 1054.73L1284.29 1113.12C1307.68 1131.11 1337.82 1137.86 1366.65 1131.54L1496.37 1103.14C1525.13 1096.84 1555.1 1105.97 1575.47 1127.24V1127.24C1614.96 1168.49 1603.01 1236.21 1551.79 1261.46L1423.32 1324.77C1393.26 1339.59 1357.76 1338.36 1328.8 1321.49L1225.5 1261.34C1177.42 1233.35 1115.74 1249.97 1088.24 1298.34L1046.6 1371.58C1033.52 1394.58 1030.1 1421.83 1037.07 1447.36L1057.38 1521.69C1067.36 1558.24 1038.6 1593.84 1000.76 1591.74V1591.74C968.944 1589.98 942.18 1615.31 942.18 1647.17L942.18 1720L942.18 1976.5" stroke="#3E5F8A" stroke-width="5"/>
</g>
<defs>
<filter id="filter0_ddddddi_749_910" x="0.050415" y="-27.5" width="1606.39" height="2019" filterUnits="userSpaceOnUse" color-interpolation-filters="sRGB">
<feFlood flood-opacity="0" result="BackgroundImageFix"/>
<feColorMatrix in="SourceAlpha" type="matrix" values="0 0 0 0 0 0 0 0 0 0 0 0 0 0 0 0 0 0 127 0" result="hardAlpha"/>
<feOffset dx="-2"/>
<feGaussianBlur stdDeviation="2"/>
<feColorMatrix type="matrix" values="0 0 0 0 0 0 0 0 0 0 0 0 0 0 0 0 0 0 0.34 0"/>
<feBlend mode="normal" in2="BackgroundImageFix" result="effect1_dropShadow_749_910"/>
<feColorMatrix in="SourceAlpha" type="matrix" values="0 0 0 0 0 0 0 0 0 0 0 0 0 0 0 0 0 0 127 0" result="hardAlpha"/>
<feOffset dx="-7"/>
<feGaussianBlur stdDeviation="3.5"/>
<feColorMatrix type="matrix" values="0 0 0 0 0 0 0 0 0 0 0 0 0 0 0 0 0 0 0.3 0"/>
<feBlend mode="normal" in2="effect1_dropShadow_749_910" result="effect2_dropShadow_749_910"/>
<feColorMatrix in="SourceAlpha" type="matrix" values="0 0 0 0 0 0 0 0 0 0 0 0 0 0 0 0 0 0 127 0" result="hardAlpha"/>
<feOffset dx="-15" dy="1"/>
<feGaussianBlur stdDeviation="4.5"/>
<feColorMatrix type="matrix" values="0 0 0 0 0 0 0 0 0 0 0 0 0 0 0 0 0 0 0.18 0"/>
<feBlend mode="normal" in2="effect2_dropShadow_749_910" result="effect3_dropShadow_749_910"/>
<feColorMatrix in="SourceAlpha" type="matrix" values="0 0 0 0 0 0 0 0 0 0 0 0 0 0 0 0 0 0 127 0" result="hardAlpha"/>
<feOffset dx="-26" dy="2"/>
<feGaussianBlur stdDeviation="5.5"/>
<feColorMatrix type="matrix" values="0 0 0 0 0 0 0 0 0 0 0 0 0 0 0 0 0 0 0.05 0"/>
<feBlend mode="normal" in2="effect3_dropShadow_749_910" result="effect4_dropShadow_749_910"/>
<feColorMatrix in="SourceAlpha" type="matrix" values="0 0 0 0 0 0 0 0 0 0 0 0 0 0 0 0 0 0 127 0" result="hardAlpha"/>
<feOffset dx="-41" dy="3"/>
<feGaussianBlur stdDeviation="6"/>
<feColorMatrix type="matrix" values="0 0 0 0 0 0 0 0 0 0 0 0 0 0 0 0 0 0 0.01 0"/>
<feBlend mode="normal" in2="effect4_dropShadow_749_910" result="effect5_dropShadow_749_910"/>
<feColorMatrix in="SourceAlpha" type="matrix" values="0 0 0 0 0 0 0 0 0 0 0 0 0 0 0 0 0 0 127 0" result="hardAlpha"/>
<feOffset dy="4"/>
<feGaussianBlur stdDeviation="2"/>
<feComposite in2="hardAlpha" operator="out"/>
<feColorMatrix type="matrix" values="0 0 0 0 0 0 0 0 0 0 0 0 0 0 0 0 0 0 0.25 0"/>
<feBlend mode="normal" in2="effect5_dropShadow_749_910" result="effect6_dropShadow_749_910"/>
<feBlend mode="normal" in="SourceGraphic" in2="effect6_dropShadow_749_910" result="shape"/>
<feColorMatrix in="SourceAlpha" type="matrix" values="0 0 0 0 0 0 0 0 0 0 0 0 0 0 0 0 0 0 127 0" result="hardAlpha"/>
<feOffset dx="5" dy="2"/>
<feGaussianBlur stdDeviation="5"/>
<feComposite in2="hardAlpha" operator="arithmetic" k2="-1" k3="1"/>
<feColorMatrix type="matrix" values="0 0 0 0 0.0942535 0 0 0 0 0.210554 0 0 0 0 0.254167 0 0 0 1 0"/>
<feBlend mode="normal" in2="shape" result="effect7_innerShadow_749_910"/>
</filter>
</defs>
</svg>
