<svg width="43" height="44" viewBox="0 0 43 44" fill="none" xmlns="http://www.w3.org/2000/svg">
<path d="M42.4828 44C42.4828 23.5449 28.879 6.18046 9.99201 0C10.083 0.107617 10.1687 0.218935 10.2491 0.333898C10.3536 0.483366 10.4493 0.63904 10.536 0.800921C10.9236 1.51495 11.1173 2.35755 11.1173 3.32861C11.1173 4.17594 10.9285 4.97088 10.5509 5.7135C10.1735 6.45611 9.54256 7.06065 8.6583 7.52716C8.49217 7.61399 8.31422 7.69297 8.12468 7.76403C8.51746 7.86037 8.86927 7.99082 9.17998 8.15549C10.0344 8.60293 10.6454 9.19323 11.0129 9.92628C11.3805 10.6594 11.5643 11.4257 11.5643 12.2255C11.5643 13.5869 11.2564 14.7246 10.6404 15.6386C10.0344 16.5525 9.12531 17.238 7.91325 17.695C7.24967 17.9451 6.49993 18.1268 5.66379 18.2401C16.0711 22.4092 23.3973 32.3724 23.3973 44H42.4828Z" fill="black"/>
<path d="M3.41258 14.5247H0L0 9.54074H3.62132C4.28689 9.54074 4.8184 9.65017 5.21587 9.86917C5.61322 10.0786 5.90133 10.3785 6.08022 10.7689C6.26895 11.1592 6.36331 11.6209 6.36331 12.1541C6.36331 12.592 6.26403 12.9919 6.06535 13.3537C5.87651 13.7059 5.56358 13.9915 5.12642 14.2105C4.69922 14.4199 4.12802 14.5247 3.41258 14.5247Z" fill="black"/>
<path d="M2.53336 6.25614H0L0 1.45784L2.56321 1.45784C3.33812 1.45784 3.96903 1.54354 4.45582 1.71493C4.95257 1.87675 5.31515 2.13856 5.54367 2.50036C5.7722 2.8621 5.88647 3.33812 5.88647 3.92842C5.88647 4.44253 5.7722 4.87095 5.54367 5.21368C5.3251 5.5564 4.97247 5.81821 4.48556 5.99911C3.99877 6.1705 3.34807 6.25614 2.53336 6.25614Z" fill="black"/>
</svg>
