<svg width="123" height="17" viewBox="0 0 123 17" fill="none" xmlns="http://www.w3.org/2000/svg">
<path d="M29.8601 9.68444L25.7495 9.68444L25.7276 7.02325L29.0599 7.02325C29.6591 7.02325 30.1378 6.95382 30.4958 6.81498C30.8539 6.66842 31.1133 6.4563 31.2741 6.1786C31.4422 5.90091 31.5262 5.5538 31.5262 5.13727C31.5262 4.65902 31.4422 4.27334 31.2741 3.98022C31.106 3.68711 30.8393 3.47498 30.4739 3.34385C30.1158 3.20501 29.6518 3.13558 29.0818 3.13558L27.1964 3.13558L27.1964 16.8465L23.3489 16.8465L23.3489 0L29.0818 2.7841e-08C30.0683 3.2632e-08 30.9489 0.0964202 31.7235 0.289261C32.4981 0.474387 33.1558 0.759791 33.6966 1.14547C34.2447 1.53115 34.6612 2.01711 34.9462 2.60334C35.2312 3.18187 35.3737 3.86452 35.3737 4.65131C35.3737 5.33782 35.2349 5.98191 34.9572 6.58357C34.6795 7.18523 34.2154 7.67505 33.5651 8.05301C32.922 8.42327 32.0414 8.61611 30.9233 8.63153L29.8601 9.68444ZM29.7066 16.8465L24.8178 16.8465L26.1332 13.7225L29.7066 13.7225C30.2328 13.7225 30.653 13.6377 30.9672 13.468C31.2887 13.2906 31.5189 13.0591 31.6578 12.7737C31.8039 12.4806 31.877 12.1567 31.877 11.8018C31.877 11.3699 31.8076 10.9958 31.6687 10.6795C31.5372 10.3632 31.3253 10.1203 31.033 9.95056C30.7406 9.77315 30.3497 9.68444 29.8601 9.68444L26.6264 9.68444L26.6484 7.02325L30.5178 7.02325L31.4166 8.08772C32.4835 8.04144 33.3276 8.19957 33.9487 8.56211C34.5772 8.92465 35.0266 9.4029 35.297 9.99684C35.5674 10.5908 35.7026 11.2117 35.7026 11.8597C35.7026 12.9627 35.476 13.8845 35.0229 14.625C34.5772 15.3655 33.9085 15.9209 33.017 16.2912C32.1254 16.6614 31.022 16.8465 29.7066 16.8465Z" fill="black"/>
<path d="M48.8235 13.7225L48.8235 16.8465L40.3173 16.8465L40.3173 13.7225L48.8235 13.7225ZM41.6875 8.90594e-08L41.6875 16.8465L37.84 16.8465L37.84 7.03745e-08L41.6875 8.90594e-08ZM47.7273 6.6877L47.7273 9.70758L40.3173 9.70758L40.3173 6.6877L47.7273 6.6877ZM48.8564 1.23874e-07L48.8564 3.13558L40.3173 3.13558L40.3173 8.24052e-08L48.8564 1.23874e-07Z" fill="black"/>
<path d="M50.4019 1.3138e-07L56.6829 1.61883e-07C57.9106 1.67845e-07 58.9775 0.192841 59.8836 0.578521C60.7898 0.964202 61.4877 1.53501 61.9773 2.29094C62.4742 3.04688 62.7227 3.98023 62.7227 5.09099C62.7227 6.05519 62.5802 6.86126 62.2952 7.5092C62.0102 8.15715 61.6119 8.69324 61.1004 9.11749C60.5961 9.53403 60.0079 9.87728 59.3356 10.1473L58.075 10.8993L52.8025 10.8993L52.7806 7.76375L56.6829 7.76375C57.1725 7.76375 57.5781 7.67119 57.8996 7.48606C58.2211 7.30094 58.4623 7.03867 58.6231 6.69927C58.7911 6.35216 58.8752 5.93948 58.8752 5.46124C58.8752 4.97528 58.7911 4.55875 58.6231 4.21163C58.455 3.86452 58.2065 3.5984 57.8777 3.41327C57.5561 3.22815 57.1579 3.13558 56.6829 3.13558L54.2494 3.13558L54.2494 16.8465L50.4019 16.8465L50.4019 1.3138e-07ZM59.1382 16.8465L55.6086 9.39518L59.6863 9.37204L63.2598 16.673L63.2598 16.8465L59.1382 16.8465Z" fill="black"/>
<path d="M68.894 2.21184e-07L68.894 16.8465L65.0465 16.8465L65.0465 2.025e-07L68.894 2.21184e-07ZM78.4195 2.67444e-07L72.2372 8.53897L68.6199 12.7159L67.9184 8.99022L70.2313 5.28768L73.6732 2.44394e-07L78.4195 2.67444e-07ZM73.8705 16.8465L69.749 9.25634L72.7415 6.93068L78.4195 16.8465L73.8705 16.8465Z" fill="black"/>
<path d="M86.1693 3.54055L82.278 16.8465L78.1455 16.8465L84.0099 2.94593e-07L86.6297 3.07316e-07L86.1693 3.54055ZM89.392 16.8465L85.4897 3.54055L84.9855 2.99331e-07L87.6382 3.12213e-07L93.5354 16.8465L89.392 16.8465ZM89.2385 10.5638L89.2385 13.6994L81.0503 13.6994L81.0503 10.5638L89.2385 10.5638Z" fill="black"/>
<path d="M108.038 4.11281e-07L108.038 16.8465L104.201 16.8465L98.5558 6.36373L98.5558 16.8465L94.7083 16.8465L94.7083 3.46549e-07L98.5558 3.65234e-07L104.201 10.4828L104.201 3.92649e-07L108.038 4.11281e-07Z" fill="black"/>
<path d="M115.656 16.8465L112.115 16.8465L112.137 13.7225L115.656 13.7225C116.387 13.7225 117.004 13.5374 117.508 13.1671C118.02 12.7969 118.407 12.2454 118.67 11.5126C118.941 10.7721 119.076 9.86186 119.076 8.78195L119.076 8.05301C119.076 7.24308 118.999 6.53343 118.846 5.92406C118.699 5.30697 118.48 4.79401 118.188 4.38519C117.896 3.96865 117.53 3.65625 117.092 3.44799C116.661 3.23972 116.164 3.13558 115.601 3.13558L112.049 3.13558L112.049 4.30764e-07L115.601 4.48012e-07C116.682 4.53264e-07 117.673 0.196698 118.572 0.590092C119.478 0.975773 120.26 1.53115 120.917 2.25623C121.582 2.9736 122.094 3.82595 122.452 4.8133C122.817 5.79292 123 6.88054 123 8.07615L123 8.78195C123 9.96985 122.817 11.0575 122.452 12.0448C122.094 13.0322 121.586 13.8845 120.928 14.6019C120.271 15.3192 119.492 15.8746 118.593 16.268C117.702 16.6537 116.723 16.8465 115.656 16.8465ZM114.318 4.41783e-07L114.318 16.8465L110.471 16.8465L110.471 4.23098e-07L114.318 4.41783e-07Z" fill="black"/>
<path d="M16.145 16.5942C16.145 14.3659 15.7274 12.1593 14.916 10.1006C14.1046 8.04194 12.9154 6.17135 11.4162 4.59569C9.917 3.02002 8.13718 1.77014 6.17838 0.917392C5.78053 0.744192 5.37687 0.588065 4.96842 0.449219C5.02618 0.53135 5.07702 0.619209 5.12095 0.712791C5.2454 0.974388 5.30762 1.28548 5.30762 1.64605C5.30762 1.96421 5.23867 2.25763 5.10077 2.52629C4.96622 2.79496 4.75264 3.01413 4.46001 3.18382C4.39879 3.21973 4.33358 3.25224 4.26437 3.28134C4.42105 3.32275 4.56026 3.38215 4.682 3.45956C4.95782 3.62924 5.15795 3.85018 5.2824 4.12239C5.41021 4.39459 5.47412 4.68623 5.47412 4.99732C5.47412 5.49223 5.37153 5.90937 5.16636 6.24874C4.96118 6.58458 4.66014 6.83733 4.26324 7.00702C4.00422 7.11871 3.7073 7.19364 3.3725 7.23181C3.46383 7.26815 3.55469 7.30599 3.64504 7.34532C4.80068 7.84842 5.85072 8.58582 6.73521 9.51541C7.6197 10.445 8.32131 11.5486 8.79999 12.7632C9.27867 13.9778 9.52505 15.2795 9.52505 16.5942L16.145 16.5942Z" fill="#3E5F8A"/>
<path d="M1.52363 3.87316L1.52363 6.02073L2.82028 6.02073C3.086 6.02073 3.30295 5.97654 3.47113 5.88816C3.6393 5.79625 3.76376 5.67252 3.84448 5.51698C3.92521 5.36144 3.96557 5.18291 3.96557 4.98141C3.96557 4.75517 3.92857 4.55897 3.85457 4.39282C3.78394 4.22667 3.66958 4.09941 3.51149 4.01103C3.3534 3.91912 3.14486 3.87316 2.88587 3.87316L1.52363 3.87316Z" fill="#3E5F8A"/>
<path d="M2.57306 2.78082L1.52363 2.78082L1.52363 0.787028L2.57306 0.787028C2.8556 0.787028 3.086 0.820612 3.26427 0.887778C3.4459 0.954945 3.57876 1.06276 3.66285 1.21124C3.7503 1.35971 3.79403 1.55414 3.79403 1.79453C3.79403 2.00663 3.74862 2.18692 3.6578 2.3354C3.57035 2.48034 3.43749 2.59169 3.25922 2.66946C3.08096 2.7437 2.85223 2.78082 2.57306 2.78082Z" fill="#3E5F8A"/>
</svg>
