<svg width="178" height="24" viewBox="0 0 178 24" fill="none" xmlns="http://www.w3.org/2000/svg">
<path d="M43.0357 13.7521H37.0793L37.0475 10.0988H41.8762C42.7445 10.0988 43.4381 10.0035 43.9569 9.81291C44.4758 9.61171 44.8517 9.32051 45.0847 8.9393C45.3282 8.55809 45.45 8.08158 45.45 7.50976C45.45 6.85323 45.3282 6.32377 45.0847 5.92138C44.8411 5.51899 44.4546 5.22779 43.9252 5.04778C43.4063 4.85717 42.7339 4.76187 41.9079 4.76187H39.1759V23.5841H33.6007V0.457367H41.9079C43.3375 0.457367 44.6135 0.589732 45.7359 0.854461C46.8584 1.1086 47.8114 1.5004 48.595 2.02986C49.3892 2.55932 49.9928 3.22644 50.4057 4.03121C50.8187 4.8254 51.0252 5.76255 51.0252 6.84264C51.0252 7.78508 50.824 8.66928 50.4216 9.49523C50.0192 10.3212 49.3468 10.9936 48.4044 11.5125C47.4725 12.0208 46.1965 12.2855 44.5764 12.3067L43.0357 13.7521ZM42.8133 23.5841H35.7291L37.6352 19.2955H42.8133C43.5757 19.2955 44.1846 19.179 44.6399 18.9461C45.1059 18.7025 45.4394 18.3848 45.6406 17.993C45.8524 17.5907 45.9583 17.1459 45.9583 16.6588C45.9583 16.0658 45.8577 15.5522 45.6565 15.1181C45.4659 14.6839 45.1588 14.3504 44.7352 14.1174C44.3117 13.8739 43.7451 13.7521 43.0357 13.7521H38.35L38.3817 10.0988H43.9887L45.2912 11.5601C46.8372 11.4966 48.0602 11.7137 48.9603 12.2114C49.871 12.709 50.5222 13.3656 50.914 14.1809C51.3058 14.9963 51.5017 15.8487 51.5017 16.7382C51.5017 18.2525 51.1735 19.5179 50.5169 20.5345C49.871 21.551 48.9021 22.3134 47.6102 22.8217C46.3183 23.33 44.7193 23.5841 42.8133 23.5841Z" fill="black"/>
<path d="M70.5146 19.2955V23.5841H58.1888V19.2955H70.5146ZM60.1743 0.457367V23.5841H54.5991V0.457367H60.1743ZM68.9262 9.63819V13.7838H58.1888V9.63819H68.9262ZM70.5622 0.457367V4.76187H58.1888V0.457367H70.5622Z" fill="black"/>
<path d="M72.8018 0.457367H81.9032C83.6822 0.457367 85.2282 0.722096 86.5413 1.25156C87.8544 1.78101 88.8656 2.56461 89.5751 3.60235C90.2952 4.64009 90.6552 5.92138 90.6552 7.44623C90.6552 8.76987 90.4487 9.87644 90.0357 10.7659C89.6228 11.6554 89.0456 12.3914 88.3044 12.9738C87.5738 13.5456 86.7213 14.0168 85.7471 14.3874L83.9205 15.4199H76.2804L76.2486 11.1154H81.9032C82.6127 11.1154 83.2004 10.9883 83.6663 10.7342C84.1323 10.48 84.4817 10.12 84.7147 9.65407C84.9582 9.17756 85.08 8.61104 85.08 7.95451C85.08 7.28739 84.9582 6.71557 84.7147 6.23906C84.4711 5.76255 84.1111 5.39722 83.6346 5.14308C83.1687 4.88894 82.5915 4.76187 81.9032 4.76187H78.3771V23.5841H72.8018V0.457367ZM85.4612 23.5841L80.3466 13.355L86.2554 13.3232L91.4335 23.3459V23.5841H85.4612Z" fill="black"/>
<path d="M99.5978 0.457367V23.5841H94.0226V0.457367H99.5978ZM113.401 0.457367L104.442 12.1796L99.2007 17.9136L98.1841 12.7991L101.536 7.71625L106.523 0.457367H113.401ZM106.809 23.5841L100.837 13.1644L105.173 9.97174L113.401 23.5841H106.809Z" fill="black"/>
<path d="M124.631 5.3178L118.992 23.5841H113.004L121.501 0.457367H125.298L124.631 5.3178ZM129.3 23.5841L123.646 5.3178L122.915 0.457367H126.759L135.304 23.5841H129.3ZM129.078 14.9592V19.2638H117.213V14.9592H129.078Z" fill="black"/>
<path d="M156.319 0.457367V23.5841H150.759L142.579 9.19344V23.5841H137.004V0.457367H142.579L150.759 14.8481V0.457367H156.319Z" fill="black"/>
<path d="M167.358 23.5841H162.227L162.259 19.2955H167.358C168.417 19.2955 169.312 19.0414 170.042 18.5331C170.784 18.0248 171.345 17.2677 171.726 16.2617C172.118 15.2452 172.314 13.9956 172.314 12.5131V11.5125C172.314 10.4006 172.202 9.4264 171.98 8.58986C171.768 7.74272 171.451 7.03854 171.027 6.47732C170.604 5.9055 170.074 5.47664 169.439 5.19073C168.814 4.90482 168.094 4.76187 167.279 4.76187H162.132V0.457367H167.279C168.846 0.457367 170.281 0.727391 171.583 1.26744C172.896 1.7969 174.029 2.55932 174.982 3.5547C175.946 4.5395 176.687 5.7096 177.206 7.06501C177.735 8.40984 178 9.90292 178 11.5442V12.5131C178 14.1439 177.735 15.637 177.206 16.9924C176.687 18.3478 175.951 19.5179 174.998 20.5027C174.045 21.4875 172.917 22.2499 171.615 22.7899C170.323 23.3194 168.904 23.5841 167.358 23.5841ZM165.42 0.457367V23.5841H159.845V0.457367H165.42Z" fill="black"/>
<path d="M22.771 23.5842C22.771 12.6202 15.4793 3.31276 5.35576 0C5.40452 0.0576833 5.45046 0.11735 5.49357 0.178971C5.54961 0.259086 5.60087 0.342529 5.64737 0.429298C5.85508 0.812022 5.95894 1.26366 5.95894 1.78415C5.95894 2.23832 5.85772 2.66442 5.65534 3.06246C5.45303 3.46051 5.11486 3.78454 4.64089 4.03459C4.55185 4.08114 4.45646 4.12347 4.35487 4.16156C4.5654 4.2132 4.75397 4.28312 4.92052 4.37139C5.37848 4.61121 5.70598 4.92762 5.90296 5.32053C6.1 5.71348 6.19852 6.12425 6.19852 6.55291C6.19852 7.28265 6.03349 7.89245 5.70329 8.38236C5.37848 8.87224 4.89121 9.23964 4.24154 9.4846C3.88586 9.61867 3.484 9.71606 3.03582 9.77677C8.61417 12.0115 12.5411 17.3518 12.5411 23.5842H22.771Z" fill="black"/>
<path d="M1.82916 7.78529H0L0 5.11388H1.94105C2.29779 5.11388 2.58269 5.17254 2.79573 5.28992C3.00871 5.40218 3.16314 5.56293 3.25903 5.77217C3.36019 5.98139 3.41076 6.22888 3.41076 6.51464C3.41076 6.74937 3.35755 6.96371 3.25106 7.15764C3.14984 7.34644 2.9821 7.49953 2.74779 7.61691C2.51881 7.72916 2.21264 7.78529 1.82916 7.78529Z" fill="black"/>
<path d="M1.35789 3.35332H0L0 0.78141L1.37389 0.78141C1.78925 0.78141 2.12742 0.827343 2.38834 0.919209C2.6546 1.00595 2.84894 1.14628 2.97144 1.34021C3.09393 1.5341 3.15517 1.78925 3.15517 2.10565C3.15517 2.38122 3.09393 2.61085 2.97144 2.79456C2.85428 2.97826 2.66527 3.11859 2.40428 3.21555C2.14336 3.30742 1.79458 3.35332 1.35789 3.35332Z" fill="black"/>
</svg>
