<svg width="123" height="17" viewBox="0 0 123 17" fill="none" xmlns="http://www.w3.org/2000/svg">
<path d="M29.86 9.68444L25.7494 9.68444L25.7275 7.02325L29.0598 7.02325C29.659 7.02325 30.1377 6.95382 30.4958 6.81498C30.8539 6.66842 31.1133 6.4563 31.274 6.1786C31.4421 5.90091 31.5262 5.5538 31.5262 5.13727C31.5262 4.65902 31.4421 4.27334 31.274 3.98022C31.106 3.68711 30.8392 3.47498 30.4739 3.34385C30.1158 3.20501 29.6517 3.13558 29.0817 3.13558L27.1964 3.13558L27.1964 16.8465L23.3489 16.8465L23.3489 0L29.0817 2.7841e-08C30.0683 3.2632e-08 30.9489 0.0964202 31.7235 0.289261C32.4981 0.474387 33.1558 0.759791 33.6965 1.14547C34.2446 1.53115 34.6611 2.01711 34.9461 2.60334C35.2311 3.18187 35.3736 3.86452 35.3736 4.65131C35.3736 5.33782 35.2348 5.98191 34.9571 6.58357C34.6794 7.18523 34.2154 7.67505 33.565 8.05301C32.9219 8.42327 32.0413 8.61611 30.9233 8.63153L29.86 9.68444ZM29.7065 16.8465L24.8177 16.8465L26.1331 13.7225L29.7065 13.7225C30.2327 13.7225 30.6529 13.6377 30.9671 13.468C31.2887 13.2906 31.5189 13.0591 31.6577 12.7737C31.8039 12.4806 31.8769 12.1567 31.8769 11.8018C31.8769 11.3699 31.8075 10.9958 31.6687 10.6795C31.5371 10.3632 31.3252 10.1203 31.0329 9.95056C30.7406 9.77315 30.3496 9.68444 29.86 9.68444L26.6264 9.68444L26.6483 7.02325L30.5177 7.02325L31.4165 8.08772C32.4835 8.04144 33.3275 8.19957 33.9487 8.56211C34.5771 8.92465 35.0265 9.4029 35.2969 9.99684C35.5673 10.5908 35.7025 11.2117 35.7025 11.8597C35.7025 12.9627 35.476 13.8845 35.0229 14.625C34.5771 15.3655 33.9085 15.9209 33.0169 16.2912C32.1254 16.6614 31.0219 16.8465 29.7065 16.8465Z" fill="black"/>
<path d="M48.8234 13.7225L48.8234 16.8465L40.3173 16.8465L40.3173 13.7225L48.8234 13.7225ZM41.6875 8.90594e-08L41.6875 16.8465L37.84 16.8465L37.84 7.03745e-08L41.6875 8.90594e-08ZM47.7273 6.6877L47.7273 9.70758L40.3173 9.70758L40.3173 6.6877L47.7273 6.6877ZM48.8563 1.23874e-07L48.8563 3.13558L40.3173 3.13558L40.3173 8.24052e-08L48.8563 1.23874e-07Z" fill="black"/>
<path d="M50.4019 1.3138e-07L56.6828 1.61883e-07C57.9105 1.67845e-07 58.9774 0.192841 59.8836 0.578521C60.7897 0.964202 61.4876 1.53501 61.9772 2.29094C62.4741 3.04688 62.7226 3.98023 62.7226 5.09099C62.7226 6.05519 62.5801 6.86126 62.2951 7.5092C62.0101 8.15715 61.6118 8.69324 61.1003 9.11749C60.5961 9.53403 60.0078 9.87728 59.3355 10.1473L58.0749 10.8993L52.8024 10.8993L52.7805 7.76375L56.6828 7.76375C57.1724 7.76375 57.578 7.67119 57.8995 7.48606C58.2211 7.30094 58.4622 7.03867 58.623 6.69927C58.7911 6.35216 58.8751 5.93948 58.8751 5.46124C58.8751 4.97528 58.7911 4.55875 58.623 4.21163C58.4549 3.86452 58.2065 3.5984 57.8776 3.41327C57.5561 3.22815 57.1578 3.13558 56.6828 3.13558L54.2494 3.13558L54.2494 16.8465L50.4019 16.8465L50.4019 1.3138e-07ZM59.1382 16.8465L55.6086 9.39518L59.6863 9.37204L63.2597 16.673L63.2597 16.8465L59.1382 16.8465Z" fill="black"/>
<path d="M68.8939 2.21184e-07L68.8939 16.8465L65.0464 16.8465L65.0464 2.025e-07L68.8939 2.21184e-07ZM78.4195 2.67444e-07L72.2372 8.53897L68.6199 12.7159L67.9184 8.99022L70.2312 5.28768L73.6731 2.44394e-07L78.4195 2.67444e-07ZM73.8704 16.8465L69.7489 9.25634L72.7414 6.93068L78.4195 16.8465L73.8704 16.8465Z" fill="black"/>
<path d="M86.1693 3.54055L82.2779 16.8465L78.1454 16.8465L84.0098 2.94593e-07L86.6296 3.07316e-07L86.1693 3.54055ZM89.3919 16.8465L85.4896 3.54055L84.9854 2.99331e-07L87.6381 3.12213e-07L93.5354 16.8465L89.3919 16.8465ZM89.2385 10.5638L89.2385 13.6994L81.0502 13.6994L81.0502 10.5638L89.2385 10.5638Z" fill="black"/>
<path d="M108.037 4.11281e-07L108.037 16.8465L104.201 16.8465L98.5558 6.36373L98.5558 16.8465L94.7083 16.8465L94.7083 3.46549e-07L98.5558 3.65234e-07L104.201 10.4828L104.201 3.92649e-07L108.037 4.11281e-07Z" fill="black"/>
<path d="M115.656 16.8465L112.115 16.8465L112.137 13.7225L115.656 13.7225C116.386 13.7225 117.004 13.5374 117.508 13.1671C118.02 12.7969 118.407 12.2454 118.67 11.5126C118.94 10.7721 119.076 9.86186 119.076 8.78195L119.076 8.05301C119.076 7.24308 118.999 6.53343 118.845 5.92406C118.699 5.30697 118.48 4.79401 118.188 4.38519C117.896 3.96865 117.53 3.65625 117.092 3.44799C116.661 3.23972 116.164 3.13558 115.601 3.13558L112.049 3.13558L112.049 4.30764e-07L115.601 4.48012e-07C116.682 4.53264e-07 117.673 0.196698 118.571 0.590092C119.478 0.975773 120.26 1.53115 120.917 2.25623C121.582 2.9736 122.094 3.82595 122.452 4.8133C122.817 5.79292 123 6.88054 123 8.07615L123 8.78195C123 9.96985 122.817 11.0575 122.452 12.0448C122.094 13.0322 121.586 13.8845 120.928 14.6019C120.27 15.3192 119.492 15.8746 118.593 16.268C117.702 16.6537 116.723 16.8465 115.656 16.8465ZM114.318 4.41783e-07L114.318 16.8465L110.471 16.8465L110.471 4.23098e-07L114.318 4.41783e-07Z" fill="black"/>
<path d="M16.145 16.5942C16.145 14.3659 15.7274 12.1593 14.9161 10.1006C14.1047 8.04194 12.9155 6.17135 11.4163 4.59569C9.91706 3.02002 8.13724 1.77014 6.17844 0.917392C5.78059 0.744192 5.37693 0.588065 4.96848 0.449219C5.02624 0.53135 5.07708 0.619209 5.12101 0.712791C5.24546 0.974388 5.30769 1.28548 5.30769 1.64605C5.30769 1.96421 5.23873 2.25763 5.10083 2.52629C4.96629 2.79496 4.7527 3.01413 4.46007 3.18382C4.39885 3.21973 4.33364 3.25224 4.26443 3.28134C4.42111 3.32275 4.56032 3.38215 4.68207 3.45956C4.95788 3.62924 5.15801 3.85018 5.28246 4.12239C5.41027 4.39459 5.47418 4.68623 5.47418 4.99732C5.47418 5.49223 5.37159 5.90937 5.16642 6.24874C4.96124 6.58458 4.6602 6.83733 4.2633 7.00702C4.00428 7.11871 3.70737 7.19364 3.37256 7.23181C3.4639 7.26815 3.55475 7.30599 3.6451 7.34532C4.80074 7.84842 5.85078 8.58582 6.73527 9.51541C7.61976 10.445 8.32137 11.5486 8.80005 12.7632C9.27874 13.9778 9.52511 15.2795 9.52511 16.5942L16.145 16.5942Z" fill="black"/>
<path d="M1.52369 3.87316L1.52369 6.02073L2.82034 6.02073C3.08606 6.02073 3.30301 5.97654 3.47119 5.88816C3.63937 5.79625 3.76382 5.67252 3.84454 5.51698C3.92527 5.36144 3.96563 5.18291 3.96563 4.98141C3.96563 4.75517 3.92863 4.55897 3.85463 4.39282C3.784 4.22667 3.66964 4.09941 3.51155 4.01103C3.35346 3.91912 3.14492 3.87316 2.88593 3.87316L1.52369 3.87316Z" fill="black"/>
<path d="M2.57312 2.78082L1.52369 2.78082L1.52369 0.787028L2.57312 0.787028C2.85566 0.787028 3.08606 0.820612 3.26433 0.887778C3.44596 0.954945 3.57882 1.06276 3.66291 1.21124C3.75036 1.35971 3.79409 1.55414 3.79409 1.79453C3.79409 2.00663 3.74868 2.18692 3.65787 2.3354C3.57041 2.48034 3.43755 2.59169 3.25928 2.66946C3.08102 2.7437 2.8523 2.78082 2.57312 2.78082Z" fill="black"/>
</svg>
