<svg width="10" height="20" viewBox="0 0 10 20" fill="none" xmlns="http://www.w3.org/2000/svg">
<path d="M8.75 5H10V14.5703C10 15.8464 9.55729 16.9401 8.67188 17.8516C7.78646 18.737 6.70573 19.1797 5.42969 19.1797C4.15365 19.1797 3.0599 18.737 2.14844 17.8516C1.26302 16.9401 0.820312 15.8464 0.820312 14.5703V4.17969C0.820312 3.26823 1.14583 2.48698 1.79688 1.83594C2.47396 1.15885 3.26823 0.820312 4.17969 0.820312C5.09115 0.820312 5.8724 1.15885 6.52344 1.83594C7.17448 2.48698 7.5 3.26823 7.5 4.17969V12.9297C7.5 13.5026 7.29167 13.9974 6.875 14.4141C6.48438 14.8047 6.0026 15 5.42969 15C4.85677 15 4.36198 14.8047 3.94531 14.4141C3.52865 13.9974 3.32031 13.5026 3.32031 12.9297V5H4.57031V12.9297C4.57031 13.1641 4.64844 13.3594 4.80469 13.5156C4.98698 13.6719 5.19531 13.75 5.42969 13.75C5.66406 13.75 5.85938 13.6719 6.01562 13.5156C6.17188 13.3594 6.25 13.1641 6.25 12.9297V4.17969C6.25 3.60677 6.04167 3.11198 5.625 2.69531C5.23438 2.27865 4.7526 2.07031 4.17969 2.07031C3.60677 2.07031 3.11198 2.27865 2.69531 2.69531C2.27865 3.11198 2.07031 3.60677 2.07031 4.17969V14.5703C2.07031 15.4818 2.39583 16.276 3.04688 16.9531C3.72396 17.6042 4.51823 17.9297 5.42969 17.9297C6.34115 17.9297 7.1224 17.6042 7.77344 16.9531C8.42448 16.276 8.75 15.4818 8.75 14.5703V5Z" fill="#7B7B7B"/>
</svg>
