<svg width="24" height="25" viewBox="0 0 24 25" fill="none" xmlns="http://www.w3.org/2000/svg">
<path d="M21.3125 0.600098C22.0208 0.600098 22.6458 0.870931 23.1875 1.4126C23.7292 1.95426 24 2.57926 24 3.2876V21.9126C24 22.6209 23.7292 23.2459 23.1875 23.7876C22.6458 24.3293 22.0208 24.6001 21.3125 24.6001H2.6875C1.97917 24.6001 1.35417 24.3293 0.8125 23.7876C0.270833 23.2459 0 22.6209 0 21.9126V3.2876C0 2.57926 0.270833 1.95426 0.8125 1.4126C1.35417 0.870931 1.97917 0.600098 2.6875 0.600098H21.3125ZM21.3125 3.2876H2.6875V21.9126H21.3125V3.2876Z" fill="black"/>
</svg>
