<svg width="48" height="54" viewBox="0 0 48 54" fill="none" xmlns="http://www.w3.org/2000/svg">
<path d="M42.625 48.625V19.375H5.375V48.625H42.625ZM42.625 6C44.0417 6 45.2917 6.54167 46.375 7.625C47.4583 8.70833 48 9.95833 48 11.375V48.625C48 50.0417 47.4583 51.2917 46.375 52.375C45.2917 53.4583 44.0417 54 42.625 54H5.375C3.875 54 2.58333 53.5 1.5 52.5C0.5 51.4167 0 50.125 0 48.625V11.375C0 9.95833 0.5 8.70833 1.5 7.625C2.58333 6.54167 3.875 6 5.375 6H8V0.625H13.375V6H34.625V0.625H40V6H42.625ZM36.125 27.5L20.25 43.375L11.75 34.875L14.625 32L20.25 37.625L33.25 24.625L36.125 27.5Z" fill="black"/>
</svg>
