<svg width="44" height="44" viewBox="0 0 44 44" fill="none" xmlns="http://www.w3.org/2000/svg">
<path d="M6.125 11.5C8.875 8.75 13.3333 6.5 19.5 4.75C25.75 2.91667 31.2917 1.75 36.125 1.25L43.375 0.625C43.2917 2.70833 43.0417 5.41667 42.625 8.75C42.2917 12 41.2083 17 39.375 23.75C37.5417 30.4167 35.25 35.125 32.5 37.875C29.6667 40.7083 26.2917 42.4583 22.375 43.125C18.4583 43.7083 14.7917 43.1667 11.375 41.5C12.125 37.3333 13.9167 32.8333 16.75 28C19.5833 23.0833 22.5833 19.2917 25.75 16.625C16.6667 21.2917 10.125 28.375 6.125 37.875C4.625 36.375 3.33333 34.3333 2.25 31.75C1.16667 29.0833 0.625 26.7083 0.625 24.625C0.625 22.5417 1.16667 20.2083 2.25 17.625C3.33333 15.0417 4.625 13 6.125 11.5Z" fill="black"/>
</svg>
