<svg width="28" height="28" viewBox="0 0 28 28" fill="none" xmlns="http://www.w3.org/2000/svg">
<path d="M19.8125 16.6875H24.3125C24.5625 15.5208 24.6875 14.625 24.6875 14C24.6875 13.375 24.5625 12.4792 24.3125 11.3125H19.8125C19.9375 12.1875 20 13.0833 20 14C20 14.9167 19.9375 15.8125 19.8125 16.6875ZM17.4375 24.0625C18.4792 23.7292 19.5625 23.1042 20.6875 22.1875C21.8125 21.2292 22.6667 20.2708 23.25 19.3125H19.3125C18.8958 20.9792 18.2708 22.5625 17.4375 24.0625ZM17.125 16.6875C17.25 15.8125 17.3125 14.9167 17.3125 14C17.3125 13.0833 17.25 12.1875 17.125 11.3125H10.875C10.75 12.1875 10.6875 13.0833 10.6875 14C10.6875 14.9167 10.75 15.8125 10.875 16.6875H17.125ZM14 24.625C15.1667 22.9167 16.0208 21.1458 16.5625 19.3125H11.4375C11.9792 21.1458 12.8333 22.9167 14 24.625ZM8.6875 8.6875C9.1875 6.89583 9.8125 5.3125 10.5625 3.9375C9.52083 4.27083 8.41667 4.91667 7.25 5.875C6.125 6.79167 5.29167 7.72917 4.75 8.6875H8.6875ZM4.75 19.3125C5.29167 20.2708 6.125 21.2292 7.25 22.1875C8.41667 23.1042 9.52083 23.7292 10.5625 24.0625C9.72917 22.5625 9.10417 20.9792 8.6875 19.3125H4.75ZM3.6875 16.6875H8.1875C8.0625 15.8125 8 14.9167 8 14C8 13.0833 8.0625 12.1875 8.1875 11.3125H3.6875C3.4375 12.4792 3.3125 13.375 3.3125 14C3.3125 14.625 3.4375 15.5208 3.6875 16.6875ZM14 3.375C12.8333 5.08333 11.9792 6.85417 11.4375 8.6875H16.5625C16.0208 6.85417 15.1667 5.08333 14 3.375ZM23.25 8.6875C22.6667 7.72917 21.8125 6.79167 20.6875 5.875C19.5625 4.91667 18.4792 4.27083 17.4375 3.9375C18.1875 5.3125 18.8125 6.89583 19.3125 8.6875H23.25ZM4.5625 4.625C7.1875 2 10.3333 0.6875 14 0.6875C17.6667 0.6875 20.7917 2 23.375 4.625C26 7.20833 27.3125 10.3333 27.3125 14C27.3125 17.6667 26 20.8125 23.375 23.4375C20.7917 26.0208 17.6667 27.3125 14 27.3125C10.3333 27.3125 7.1875 26.0208 4.5625 23.4375C1.97917 20.8125 0.6875 17.6667 0.6875 14C0.6875 10.3333 1.97917 7.20833 4.5625 4.625Z" fill="black"/>
</svg>
