<svg width="22" height="23" viewBox="0 0 22 23" fill="none" xmlns="http://www.w3.org/2000/svg">
<path d="M22 23C22 19.8255 21.3792 16.6822 20.1731 13.7493C18.967 10.8165 17.1992 8.15171 14.9706 5.90703C12.742 3.66235 10.0962 1.88177 7.1844 0.666957C6.59299 0.420217 5.99295 0.197799 5.38578 3.58682e-08C5.47163 0.117004 5.54721 0.242166 5.61251 0.375483C5.79751 0.748153 5.89001 1.19133 5.89001 1.705C5.89001 2.15825 5.78751 2.57624 5.58251 2.95898C5.38251 3.34173 5.06501 3.65396 4.63001 3.89569C4.539 3.94685 4.44206 3.99316 4.33919 4.03462C4.57209 4.09361 4.77903 4.17823 4.96001 4.28851C5.37001 4.53024 5.66751 4.84499 5.85251 5.23277C6.04251 5.62055 6.13751 6.03602 6.13751 6.47919C6.13751 7.18424 5.98501 7.7785 5.68001 8.26196C5.37501 8.74039 4.92751 9.10046 4.33751 9.3422C3.95246 9.5013 3.51109 9.60805 3.0134 9.66243C3.14917 9.7142 3.28423 9.76811 3.41853 9.82414C5.13642 10.5408 6.69733 11.5913 8.01215 12.9156C9.32696 14.2399 10.3699 15.8121 11.0815 17.5424C11.7931 19.2727 12.1593 21.1272 12.1593 23L22 23Z" fill="#3E5F8A"/>
<path d="M0.265009 4.87773L0.265007 7.93713L2.19251 7.93713C2.58751 7.93713 2.91001 7.87418 3.16001 7.74828C3.41001 7.61734 3.59501 7.44108 3.71501 7.2195C3.83501 6.99791 3.89501 6.74359 3.89501 6.45653C3.89501 6.13422 3.84001 5.85472 3.73001 5.61803C3.62501 5.38133 3.45501 5.20003 3.22001 5.07413C2.98501 4.94319 2.67501 4.87773 2.29001 4.87773L0.265009 4.87773Z" fill="#3E5F8A"/>
<path d="M1.82501 3.32158L0.265008 3.32158L0.265008 0.48124L1.82501 0.48124C2.24501 0.48124 2.58751 0.529084 2.85251 0.624768C3.12251 0.720454 3.32001 0.874053 3.44501 1.08557C3.57501 1.29708 3.64001 1.57407 3.64001 1.91652C3.64001 2.21868 3.57251 2.47552 3.43751 2.68704C3.30751 2.89352 3.11001 3.05215 2.84501 3.16295C2.58001 3.2687 2.24001 3.32158 1.82501 3.32158Z" fill="#3E5F8A"/>
</svg>
