<svg width="18" height="18" viewBox="0 0 18 18" fill="none" xmlns="http://www.w3.org/2000/svg">
<path d="M14 10.25V9H10.6797V10.25H14ZM14 12.75V11.5H10.6797V12.75H14ZM9.82031 6.5V2.32031H8.17969V6.5H9.82031ZM9 14V13.375C9 13.0104 8.71354 12.7109 8.14062 12.4766C7.56771 12.2422 7.02083 12.125 6.5 12.125C5.97917 12.125 5.43229 12.2422 4.85938 12.4766C4.28646 12.7109 4 13.0104 4 13.375V14H9ZM7.39844 9.35156C7.16406 9.11719 6.86458 9 6.5 9C6.13542 9 5.83594 9.11719 5.60156 9.35156C5.36719 9.58594 5.25 9.88542 5.25 10.25C5.25 10.6146 5.36719 10.9141 5.60156 11.1484C5.83594 11.3828 6.13542 11.5 6.5 11.5C6.86458 11.5 7.16406 11.3828 7.39844 11.1484C7.63281 10.9141 7.75 10.6146 7.75 10.25C7.75 9.88542 7.63281 9.58594 7.39844 9.35156ZM15.6797 4.82031C16.1224 4.82031 16.5 4.98958 16.8125 5.32812C17.151 5.66667 17.3203 6.05729 17.3203 6.5V15.6797C17.3203 16.1224 17.151 16.513 16.8125 16.8516C16.5 17.1641 16.1224 17.3203 15.6797 17.3203H2.32031C1.8776 17.3203 1.48698 17.1641 1.14844 16.8516C0.835938 16.513 0.679688 16.1224 0.679688 15.6797V6.5C0.679688 6.05729 0.835938 5.66667 1.14844 5.32812C1.48698 4.98958 1.8776 4.82031 2.32031 4.82031H6.5V2.32031C6.5 1.8776 6.66927 1.5 7.00781 1.1875C7.34635 0.848958 7.73698 0.679688 8.17969 0.679688H9.82031C10.263 0.679688 10.6536 0.848958 10.9922 1.1875C11.3307 1.5 11.5 1.8776 11.5 2.32031V4.82031H15.6797Z" fill="#7B7B7B"/>
</svg>
