<svg width="11" height="20" viewBox="0 0 11 20" fill="none" xmlns="http://www.w3.org/2000/svg">
<path d="M9.32031 15V3.32031H1.82031V15H9.32031ZM4.67188 17.9688C4.93229 18.2031 5.23177 18.3203 5.57031 18.3203C5.90885 18.3203 6.19531 18.2031 6.42969 17.9688C6.6901 17.7083 6.82031 17.4089 6.82031 17.0703C6.82031 16.7318 6.6901 16.4453 6.42969 16.2109C6.19531 15.9505 5.90885 15.8203 5.57031 15.8203C5.23177 15.8203 4.93229 15.9505 4.67188 16.2109C4.4375 16.4453 4.32031 16.7318 4.32031 17.0703C4.32031 17.4089 4.4375 17.7083 4.67188 17.9688ZM8.92969 0.820312C9.5026 0.820312 9.98438 1.02865 10.375 1.44531C10.7917 1.86198 11 2.35677 11 2.92969V17.0703C11 17.6432 10.7917 18.138 10.375 18.5547C9.98438 18.9714 9.5026 19.1797 8.92969 19.1797H2.25C1.67708 19.1797 1.18229 18.9714 0.765625 18.5547C0.375 18.138 0.179688 17.6432 0.179688 17.0703V2.92969C0.179688 2.35677 0.375 1.86198 0.765625 1.44531C1.18229 1.02865 1.67708 0.820312 2.25 0.820312H8.92969Z" fill="#7B7B7B"/>
</svg>
