<svg width="27" height="27" viewBox="0 0 27 27" fill="none" xmlns="http://www.w3.org/2000/svg">
<path d="M4.99219 15.0547C6.30469 16.3672 7.89844 17.0234 9.77344 17.0234C11.6484 17.0234 13.2422 16.3672 14.5547 15.0547C15.8672 13.7422 16.5234 12.1484 16.5234 10.2734C16.5234 8.39844 15.8672 6.80469 14.5547 5.49219C13.2422 4.17969 11.6484 3.52344 9.77344 3.52344C7.89844 3.52344 6.30469 4.17969 4.99219 5.49219C3.67969 6.80469 3.02344 8.39844 3.02344 10.2734C3.02344 12.1484 3.67969 13.7422 4.99219 15.0547ZM18.7734 17.0234L26.2266 24.4766L23.9766 26.7266L16.5234 19.2734V18.0781L16.1016 17.6562C14.3203 19.2031 12.2109 19.9766 9.77344 19.9766C7.05469 19.9766 4.73438 19.0391 2.8125 17.1641C0.9375 15.2891 0 12.9922 0 10.2734C0 7.55469 0.9375 5.25781 2.8125 3.38281C4.73438 1.46094 7.05469 0.5 9.77344 0.5C12.4922 0.5 14.7891 1.46094 16.6641 3.38281C18.5391 5.25781 19.4766 7.55469 19.4766 10.2734C19.4766 11.2578 19.2422 12.3828 18.7734 13.6484C18.3047 14.8672 17.7656 15.8516 17.1562 16.6016L17.5781 17.0234H18.7734Z" fill="white"/>
</svg>
