<svg width="54" height="44" viewBox="0 0 54 44" fill="none" xmlns="http://www.w3.org/2000/svg">
<path d="M27 32.625C25.5833 32.625 24.3333 32.125 23.25 31.125C22.1667 30.0417 21.625 28.7917 21.625 27.375C21.625 25.875 22.1667 24.5833 23.25 23.5L45.875 8.5L30.75 31.125C29.75 32.125 28.5 32.625 27 32.625ZM49.375 12.875C50.5417 14.7083 51.5417 17.0417 52.375 19.875C53.2083 22.7083 53.625 25.2083 53.625 27.375C53.625 32.2917 52.4583 36.7083 50.125 40.625C49.0417 42.4583 47.5 43.375 45.5 43.375H8.5C6.5 43.375 4.95833 42.4583 3.875 40.625C1.54167 36.7083 0.375 32.2917 0.375 27.375C0.375 20.0417 2.95833 13.7917 8.125 8.625C13.375 3.375 19.7083 0.75 27.125 0.75C29.2917 0.75 31.75 1.16667 34.5 2C37.3333 2.83333 39.6667 3.83333 41.5 5L36.5 8.25C33.5 6.75 30.3333 6 27 6C21.1667 6 16.125 8.08333 11.875 12.25C7.70833 16.4167 5.625 21.4583 5.625 27.375C5.625 31.2083 6.58333 34.75 8.5 38H45.5C47.4167 34.75 48.375 31.2083 48.375 27.375C48.375 23.9583 47.625 20.75 46.125 17.75L49.375 12.875Z" fill="black"/>
</svg>
