<svg width="17" height="14" viewBox="0 0 17 14" fill="none" xmlns="http://www.w3.org/2000/svg">
<path d="M6.5 0.320312H16.5V11.1797C16.5 11.6224 16.3828 12.0391 16.1484 12.4297C15.9401 12.7943 15.6406 13.0938 15.25 13.3281C14.8854 13.5625 14.4688 13.6797 14 13.6797H5.67969C5.21094 13.6797 4.80729 13.5234 4.46875 13.2109C4.15625 12.8724 4 12.4688 4 12V9.5H6.5V7.625C6.03125 7.59896 5.5625 7.49479 5.09375 7.3125C4.65104 7.10417 4.2474 6.83073 3.88281 6.49219V5.55469H2.98438L0.210938 2.78125C0.783854 2.20833 1.42188 1.77865 2.125 1.49219C2.85417 1.20573 3.58333 1.0625 4.3125 1.0625C5.06771 1.0625 5.79688 1.20573 6.5 1.49219V0.320312ZM5.5625 5.67188C5.92708 5.85417 6.30469 5.94531 6.69531 5.94531C7.32031 5.94531 7.85417 5.72396 8.29688 5.28125L8.45312 5.125L7.28125 3.95312C6.44792 3.14583 5.45833 2.74219 4.3125 2.74219C3.79167 2.74219 3.28385 2.83333 2.78906 3.01562L3.6875 3.875H5.5625V5.67188ZM14.8203 11.1797V2H8.17969V2.50781L13.1797 7.50781V8.67969H12.0078L9.625 6.33594L9.46875 6.49219C9.10417 6.85677 8.67448 7.14323 8.17969 7.35156V9.5H13.1797V11.1797C13.1797 11.388 13.2578 11.5833 13.4141 11.7656C13.5703 11.9219 13.7656 12 14 12C14.2344 12 14.4297 11.9219 14.5859 11.7656C14.7422 11.5833 14.8203 11.388 14.8203 11.1797Z" fill="#7B7B7B"/>
</svg>
