<svg width="30" height="30" viewBox="0 0 30 30" fill="none" xmlns="http://www.w3.org/2000/svg">
<path d="M6.49219 6.49219C4.14844 8.88281 2.97656 11.7187 2.97656 15C2.97656 18.2812 4.14844 21.0937 6.49219 23.4375C8.88281 25.8281 11.7187 27.0234 15 27.0234C18.2812 27.0234 21.0937 25.8281 23.4375 23.4375C25.8281 21.0937 27.0234 18.2812 27.0234 15C27.0234 11.7187 25.8281 8.88281 23.4375 6.49219C21.0937 4.14844 18.2812 2.97656 15 2.97656C11.7187 2.97656 8.88281 4.14844 6.49219 6.49219ZM25.5469 4.38281C28.5 7.33594 29.9766 10.875 29.9766 15C29.9766 19.125 28.5 22.6406 25.5469 25.5469C22.6406 28.5 19.125 29.9766 15 29.9766C10.875 29.9766 7.33594 28.5 4.38281 25.5469C1.47656 22.6406 0.0234365 19.125 0.0234367 15C0.0234369 10.875 1.47656 7.33594 4.38281 4.38281C7.33594 1.47656 10.875 0.0234365 15 0.0234367C19.125 0.0234369 22.6406 1.47656 25.5469 4.38281Z" fill="black"/>
</svg>
